<?xml version="1.0" standalone="no"?>
<!DOCTYPE svg PUBLIC "-//W3C//DTD SVG 20010904//EN"
 "http://www.w3.org/TR/2001/REC-SVG-20010904/DTD/svg10.dtd">
<svg version="1.0" xmlns="http://www.w3.org/2000/svg"
 width="260.000000pt" height="260.000000pt" viewBox="0 0 260.000000 260.000000"
 preserveAspectRatio="xMidYMid meet">
<metadata>
Created by potrace 1.14, written by Peter Selinger 2001-2017
</metadata>
<g transform="translate(0.000000,260.000000) scale(0.100000,-0.100000)"
fill="#000000" stroke="none">
<path d="M35 2447 c-39 -39 -44 -70 -20 -122 21 -42 51 -55 135 -55 80 0 76 5
85 -115 3 -44 8 -96 10 -115 4 -38 12 -125 20 -235 3 -38 8 -86 10 -105 3 -19
7 -64 10 -100 3 -36 7 -87 10 -115 2 -27 7 -81 10 -120 3 -38 8 -90 10 -115 3
-25 7 -70 10 -100 6 -76 15 -176 21 -232 9 -90 55 -186 118 -247 l35 -34 -18
-26 c-34 -47 -54 -126 -48 -190 9 -115 77 -216 177 -267 48 -25 67 -28 140
-28 104 0 159 22 229 92 69 69 95 141 88 250 l-5 82 285 0 285 0 -7 -32 c-27
-120 6 -230 92 -309 61 -56 123 -81 208 -85 98 -4 172 26 241 100 182 193 62
511 -200 533 -33 2 -333 5 -666 6 l-605 2 -40 23 c-35 20 -90 80 -81 89 1 2
41 5 87 8 124 7 255 15 329 20 36 2 115 7 175 10 61 3 135 8 165 10 30 2 109
6 175 10 66 3 143 8 170 10 28 2 102 7 165 10 63 4 142 8 175 10 33 2 107 7
164 10 101 6 131 13 160 42 21 22 243 911 236 949 -3 17 -17 42 -31 55 l-26
24 -1031 5 c-1023 5 -1032 5 -1033 25 -1 11 -5 56 -9 100 -4 44 -9 100 -10
125 -8 99 -16 128 -41 151 -24 23 -33 24 -175 27 l-150 3 -34 -34z m2295 -612
c4 -3 -146 -628 -154 -642 -4 -6 -76 -13 -196 -19 -74 -3 -151 -8 -170 -9 -19
-1 -93 -5 -165 -9 -71 -4 -150 -9 -175 -11 -25 -2 -97 -6 -160 -10 -63 -3
-149 -8 -190 -10 -41 -3 -113 -7 -160 -10 -87 -5 -205 -12 -342 -21 l-78 -5
-1 38 c-1 21 -3 47 -4 58 -3 20 -12 127 -20 220 -7 86 -16 179 -20 215 -3 27
-15 173 -17 200 0 3 0 8 1 12 1 7 1839 10 1851 3z m-1532 -1299 c44 -23 66
-78 51 -128 -12 -43 -54 -73 -102 -73 -31 0 -45 7 -68 33 -78 88 16 221 119
168z m1182 -1 c62 -32 76 -115 29 -166 -50 -53 -123 -46 -160 15 -24 40 -24
73 1 114 31 50 78 64 130 37z"/>
</g>
</svg>
